<svg width="105" height="79" viewBox="0 0 105 79" fill="none" xmlns="http://www.w3.org/2000/svg">
<path opacity="0.05" fill-rule="evenodd" clip-rule="evenodd" d="M32.4249 79C31.0706 79 30.0242 78.0013 29.9626 76.628L27.0079 18.3898L19.8058 45.7923C19.498 46.8535 18.5131 47.6025 17.4051 47.6025H2.44687C-0.815624 47.6025 -0.815624 42.6089 2.44687 42.6089H15.5584L26.3308 1.84833C27.0079 -0.898165 31.0091 -0.461222 31.1938 2.3477L34.0869 60.6484L38.6421 43.4203C38.9499 42.3592 39.9348 41.6102 41.0428 41.6102H47.1369L51.3843 25.7554C51.9999 23.2585 55.5701 23.321 56.1241 25.8802L61.5411 51.0981L67.0196 36.3668C67.389 35.3681 68.3123 34.7439 69.3588 34.7439H102.599C105.8 34.7439 105.8 39.7375 102.599 39.7375H71.0208L63.2031 60.7732C62.3413 63.0828 59.0173 62.8331 58.4633 60.3987L53.4772 36.9286L51.3843 44.7312C51.0765 45.7923 50.1532 46.6038 49.0451 46.6038H42.8895L34.764 77.1898C34.5178 78.251 33.5329 79 32.4249 79Z" fill="#1C396A"/>
</svg>
