<svg width="126" height="126" viewBox="0 0 126 126" fill="none" xmlns="http://www.w3.org/2000/svg">
<g opacity="0.05" clip-path="url(#clip0_21_3644)">
<path d="M61.2718 60.2066L49.5947 39.4263L35.8627 47.1427L47.6081 68.0445L47.2603 99.5792C47.1817 105.699 53.7255 109.377 58.8294 106.509L88.3593 89.9156C93.5847 86.9793 93.6563 79.424 88.4562 76.43C87.3023 75.7992 65.1281 62.5166 61.2718 60.2066ZM53.8163 75.1089C54.0292 74.3497 54.8799 73.8717 55.5176 74.1529C56.2768 74.3658 56.6866 75.095 56.4736 75.8542C56.2607 76.6134 55.5316 77.0232 54.7723 76.8102C54.0131 76.5973 53.7249 75.7999 53.8163 75.1089ZM86.9935 87.4851L57.4637 104.079C54.0611 105.991 49.9466 103.506 50.009 99.6335L50.0737 90.6431L54.1081 85.0183C55.681 82.6954 58.3012 81.3829 61.05 81.4373C65.2338 81.4846 69.1075 78.9881 71.0529 75.3366L73.4544 70.7893C73.6442 70.8425 73.7125 70.964 73.7808 71.0855L73.849 71.2071C74.7449 71.663 77.7054 73.5171 86.8302 78.9426C90.4134 80.7666 90.3962 85.5731 86.9935 87.4851Z" fill="#1C396A"/>
<path d="M79.2947 85.7354C80.637 84.9811 81.1137 83.2815 80.3594 81.9392C79.6052 80.5969 77.9055 80.1202 76.5633 80.8745C75.221 81.6288 74.7443 83.3284 75.4985 84.6707C76.2528 86.013 77.9524 86.4897 79.2947 85.7354Z" fill="#1C396A"/>
<path d="M61.5916 90.0862C62.9339 89.3319 63.4106 87.6323 62.6563 86.29C61.902 84.9477 60.2024 84.4711 58.8601 85.2253C57.5178 85.9796 57.0411 87.6792 57.7954 89.0215C58.5497 90.3638 60.2493 90.8405 61.5916 90.0862Z" fill="#1C396A"/>
<path d="M54.7555 98.4054C54.5425 99.1647 54.9523 99.8938 55.7115 100.107C56.4707 100.32 57.1999 99.91 57.4128 99.1507C57.6257 98.3915 57.216 97.6624 56.4568 97.4494C55.6975 97.2365 54.8469 97.7145 54.7555 98.4054ZM32.5528 45.8048L50.0519 35.9715C50.7811 35.5618 50.994 34.8026 50.5843 34.0734C50.1746 33.3443 49.4153 33.1314 48.6862 33.5411L31.187 43.3744C30.4579 43.7841 30.245 44.5433 30.6547 45.2725C30.9961 45.8801 31.9452 46.1462 32.5528 45.8048ZM37.5266 80.2652L44.7335 78.2941L44.7195 75.4238L36.8368 77.6149C35.6909 75.8603 33.2234 75.1683 31.2791 76.2609C29.3347 77.3535 28.5212 79.8893 29.682 81.9551C30.2283 82.9273 31.1392 83.6946 32.2097 83.8925L34.2481 93.7798L33.8835 93.9847C31.9391 95.0773 31.1256 97.6131 32.2864 99.679C33.379 101.623 35.9148 102.437 37.9807 101.276C40.0466 100.115 40.7386 97.6476 39.5777 95.5818C39.0315 94.6096 38.1889 93.9638 37.05 93.6444L35.0117 83.757L35.3763 83.5522C36.5232 82.7478 37.2755 81.5256 37.5266 80.2652ZM87.0214 23.5118C85.077 24.6044 84.2635 27.1402 85.4243 29.2061C85.834 29.9352 86.5551 30.6493 87.3826 30.9837L86.9002 40.3688C86.6571 40.5054 86.3458 40.5204 86.1028 40.657C85.0091 41.2716 84.1885 42.3723 84.0589 43.5643L78.7512 43.5089L80.3218 46.3039L84.5057 46.3513C85.5983 48.2956 88.1873 48.9194 90.1317 47.8268C92.076 46.7342 92.8896 44.1984 91.7287 42.1325C91.2507 41.2819 90.4082 40.6361 89.5806 40.3016L89.8733 30.8633C90.4427 31.023 90.8073 30.8182 91.0503 30.6816C91.6579 30.3401 92.0757 29.9455 92.5468 29.361C93.4205 28.0705 93.4668 26.4456 92.7156 25.1088C91.5548 23.043 89.0873 22.3509 87.0214 23.5118ZM73.1916 64.0615C80.6463 68.5068 89.2549 73.5828 89.9609 73.9855C91.1831 74.7378 92.1622 75.6266 92.8983 76.6521C93.0279 75.46 92.7779 74.1614 92.095 72.9462L65.4632 25.5526L54.7693 31.5619L73.0701 64.1297L73.1916 64.0615ZM83.8742 66.8528C83.6612 67.6121 82.9321 68.0218 82.1729 67.8088C81.4136 67.5959 81.0039 66.8668 81.2168 66.1075C81.4298 65.3483 82.2804 64.8703 82.9182 65.1515C83.5559 65.4327 84.0871 66.0936 83.8742 66.8528ZM65.1915 39.2963C65.4044 38.5371 66.1335 38.1274 66.8928 38.3403C67.652 38.5533 68.0617 39.2824 67.8488 40.0416C67.6359 40.8009 66.9067 41.2106 66.1475 40.9976C65.3883 40.7847 64.9785 40.0556 65.1915 39.2963ZM71.3061 52.1696C71.519 51.4103 72.2481 51.0006 73.0074 51.2136C73.7666 51.4265 74.1763 52.1556 73.9634 52.9149C73.7505 53.6741 73.0213 54.0838 72.2621 53.8709C71.5711 53.7795 71.1614 53.0503 71.3061 52.1696ZM66.3994 20.3896C66.058 19.782 65.1089 19.5158 64.5013 19.8573L50.6478 27.6419C50.0402 27.9834 49.774 28.9324 50.1155 29.54C50.5252 30.2692 51.4059 30.4138 52.0136 30.0724L65.8671 22.2877C66.4747 21.9463 66.8091 21.1187 66.3994 20.3896Z" fill="#1C396A"/>
</g>
<defs>
<clipPath id="clip0_21_3644">
<rect width="92" height="92" fill="white" transform="translate(0 45.0693) rotate(-29.3329)"/>
</clipPath>
</defs>
</svg>
