<svg width="117" height="126" viewBox="0 0 117 126" fill="none" xmlns="http://www.w3.org/2000/svg">
<g opacity="0.05" clip-path="url(#clip0_21_3640)">
<path d="M21.9152 52.0456C21.0057 52.4926 20.6304 53.5936 21.0775 54.5031C21.5245 55.4126 22.6255 55.7879 23.535 55.3409C24.4445 54.8938 24.8198 53.7929 24.3728 52.8833C23.9257 51.9738 22.8247 51.5985 21.9152 52.0456ZM51.8873 75.5664L46.9447 77.9959L44.5152 73.0533C44.068 72.1435 42.9675 71.7683 42.0576 72.2155C41.1478 72.6628 40.7728 73.7632 41.22 74.673L43.6495 79.6156L38.7069 82.0451C37.7971 82.4923 37.4219 83.5928 37.8691 84.5025C38.3162 85.4121 39.4168 85.7875 40.3266 85.3402L45.2692 82.9108L47.6987 87.8534C48.1459 88.7632 49.2464 89.1384 50.1561 88.6912C51.0658 88.2441 51.4411 87.1435 50.9939 86.2337L48.5644 81.2911L53.507 78.8616C54.4168 78.4144 54.792 77.3139 54.3448 76.404C53.8975 75.4942 52.7973 75.1191 51.8873 75.5664Z" fill="#005B98"/>
<path d="M97.0842 55.1917C90.3414 50.6737 81.2271 52.4732 76.7084 59.2174L71.9152 66.3708L64.8824 52.0632C64.013 50.2945 62.5653 48.8267 60.8055 47.9304L47.1689 40.9962L44.87 36.3192C46.4532 34.6965 46.9307 32.1881 45.8749 30.0401L42.1496 22.4614C40.8097 19.7362 37.5026 18.6088 34.7772 19.9484L5.12095 34.5256C2.39557 35.8653 1.26803 39.1724 2.60766 41.8978L6.33297 49.4767C7.38865 51.6244 9.66652 52.7788 11.9184 52.5164L14.2173 57.1934L11.378 72.227C11.0129 74.167 11.2907 76.2096 12.1601 77.9783L27.8443 109.887C30.0771 114.429 35.589 116.308 40.1313 114.075L66.6093 101.06C73.3473 105.437 82.3317 103.594 86.8036 96.9192L101.11 75.5674C105.589 68.8821 103.862 59.735 97.0842 55.1917ZM5.90279 40.2781C5.45622 39.3696 5.83205 38.2672 6.7404 37.8207L36.3966 23.2435C37.3051 22.7969 38.4076 23.1727 38.8542 24.0812L42.5795 31.6601C43.026 32.5686 42.6501 33.6709 41.7416 34.1175L12.0856 48.6946C11.177 49.1412 10.0748 48.7653 9.62827 47.8569L5.90279 40.2781ZM14.9862 72.9069L17.9387 57.2733C18.0124 56.8829 17.9576 56.4792 17.7823 56.1227L15.3528 51.1801L41.7139 38.2226L43.3336 41.5177L28.5056 48.8063C27.5957 49.2535 27.2206 50.354 27.6678 51.2638C28.115 52.1736 29.2155 52.5488 30.1253 52.1016L45.7772 44.4081L59.1399 51.203C60.0137 51.648 60.7556 52.3297 61.2826 53.1517L15.2207 75.7929C14.8915 74.8735 14.805 73.8697 14.9862 72.9069ZM38.5117 110.78C35.7864 112.12 32.4792 110.992 31.1396 108.267L30.3217 106.603L60.2554 91.8894C60.783 94.2824 61.9079 96.5624 63.5821 98.4572L38.5118 110.78L38.5117 110.78ZM59.936 87.9754L28.7099 103.324L16.8051 79.105L62.9371 56.4293L69.5549 69.8928L62.4017 80.5693C60.9106 82.7959 60.069 85.3356 59.936 87.9754ZM83.7536 94.8751C80.3674 99.9296 73.5318 101.285 68.4739 97.8961C63.3806 94.4683 62.0878 87.636 65.4523 82.6127L71.8572 73.0534L90.1585 85.3159L83.7536 94.8751ZM98.0599 73.5237L92.2025 82.2657L73.9008 70.003L79.7586 61.2614C83.1474 56.2042 89.9822 54.8529 95.0402 58.2417C100.122 61.6483 101.421 68.5065 98.0599 73.5237Z" fill="#005B98"/>
</g>
<defs>
<clipPath id="clip0_21_3640">
<rect width="94" height="94" fill="white" transform="translate(-9 41.4661) rotate(-26.1759)"/>
</clipPath>
</defs>
</svg>
